<svg data-v-fde0c5aa="" xmlns="http://www.w3.org/2000/svg" viewBox="0 0 300 300" class="iconLeftSlogan"><!----><defs data-v-fde0c5aa=""><!----></defs><rect data-v-fde0c5aa="" fill="transparent" x="0" y="0" width="300px" height="300px" class="logo-background-square"></rect><defs data-v-fde0c5aa=""><!----></defs><g data-v-fde0c5aa="" id="d006243f-ab94-476e-aca1-a639a43f2f2b" fill="#000000" transform="matrix(1.5171821990084018,0,0,1.5171821990084018,125.48661557047043,124.79783475659819)"><path d="M1.61 8.48C1.61 5.89 3.44 4.34 5.36 4.34C6.65 4.34 7.64 4.98 8.22 5.71C8.47 6.03 8.53 6.26 8.58 6.64C8.65 7.20 8.62 7.29 8.99 7.29C9.23 7.29 9.27 7.15 9.27 7.06C9.27 6.92 8.89 4.10 8.89 4.09C8.88 4.00 8.85 3.92 8.71 3.92C8.68 3.92 8.60 3.93 8.55 3.93C8.29 4.00 8.39 4.44 8.15 4.44C7.97 4.44 7.10 3.70 5.40 3.70L5.39 3.70C4.09 3.70 2.77 4.21 1.82 5.12C0.91 6.01 0.27 7.34 0.27 8.75C0.27 10.08 0.83 11.41 1.78 12.33C2.72 13.24 4.02 13.78 5.32 13.78C6.10 13.78 7.01 13.59 7.91 13.08C8.20 12.89 8.23 12.78 8.57 12.78L8.96 12.78L8.97 12.78C9.04 12.78 9.23 12.77 9.28 12.56C9.32 12.46 9.63 10.28 9.63 10.28C9.63 10.16 9.51 10.12 9.41 10.12C9.24 10.12 9.21 10.26 9.20 10.30C8.68 11.98 7.15 13.06 5.54 13.06C3.36 13.06 1.61 11.06 1.61 8.48ZM12.99 13.24C12.99 13.06 12.92 12.99 12.75 12.96C12.19 12.87 12.04 12.89 12.04 12.45L12.04 3.58C12.04 3.46 12.01 3.32 11.84 3.32C11.77 3.32 11.72 3.35 11.68 3.37C9.98 4.26 9.95 4.23 9.95 4.34L9.95 4.35C9.95 4.51 10.14 4.56 10.70 4.90C10.93 5.04 11.02 5.04 11.02 5.25L11.02 12.38C11.02 12.66 10.99 12.87 10.63 12.91C10.15 12.96 10.05 12.95 10.05 13.22L10.05 13.26C10.05 13.36 10.07 13.51 10.25 13.51C10.29 13.51 10.84 13.44 11.51 13.44C12.21 13.44 12.78 13.52 12.82 13.52C12.96 13.52 12.99 13.41 12.99 13.24ZM13.44 10.58C13.44 12.31 14.63 13.71 16.41 13.71C17.98 13.71 19.39 12.59 19.39 10.58C19.39 8.71 18.13 7.39 16.46 7.39C14.90 7.39 13.44 8.64 13.44 10.58ZM16.45 13.02C15.30 13.02 14.53 11.97 14.53 10.51C14.53 8.64 15.64 8.05 16.37 8.05C17.43 8.05 18.44 9.14 18.44 10.64C18.44 11.89 17.64 13.02 16.45 13.02ZM29.97 7.63C29.86 7.63 29.53 7.69 28.85 7.69C28.20 7.69 27.86 7.63 27.76 7.63C27.61 7.63 27.59 7.76 27.59 7.87C27.59 8.09 27.71 8.13 27.85 8.15C28.45 8.19 28.70 8.15 28.70 8.48C28.70 8.64 28.35 10.35 27.34 12.12C27.33 12.17 27.29 12.25 27.17 12.25C27.09 12.25 27.02 12.18 26.95 12.05C26.04 10.61 25.20 8.74 25.20 8.47C25.20 8.25 25.38 8.19 25.52 8.18C26.31 8.11 26.33 8.15 26.33 7.92L26.33 7.84C26.33 7.74 26.29 7.63 26.14 7.63C26.00 7.63 25.56 7.67 24.70 7.67C23.83 7.67 23.39 7.63 23.25 7.63C23.07 7.63 23.03 7.76 23.03 7.95C23.03 8.40 23.73 7.97 24.08 8.51C24.14 8.60 24.61 9.58 24.61 9.69L24.61 9.70C24.60 9.91 23.88 11.31 23.34 12.15C23.34 12.17 23.28 12.26 23.20 12.26C23.11 12.26 23.07 12.18 23.06 12.15C22.48 11.03 21.95 9.86 21.49 8.64C21.45 8.55 21.41 8.44 21.41 8.37C21.41 7.95 22.27 8.39 22.27 7.87C22.27 7.70 22.20 7.63 22.11 7.63C22.01 7.63 21.70 7.67 21.10 7.67L21.06 7.67C20.44 7.67 20.12 7.63 20.02 7.63C19.81 7.63 19.77 7.74 19.77 7.87C19.77 8.33 20.16 7.98 20.38 8.37C20.48 8.54 21.20 10.58 22.69 13.43C22.82 13.66 22.93 13.79 23.10 13.79C23.21 13.79 23.30 13.73 23.35 13.66C23.46 13.54 23.46 13.50 24.40 11.61C24.92 10.50 24.92 10.50 24.96 10.50C25.02 10.50 25.00 10.51 25.89 12.22C26.54 13.44 26.70 13.79 26.96 13.79C27.12 13.79 27.22 13.71 27.36 13.44C29.61 9.24 29.15 8.30 29.75 8.18C29.88 8.16 30.18 8.23 30.18 7.87C30.18 7.73 30.11 7.63 29.97 7.63ZM32.19 8.16C32.19 8.15 32.20 8.11 32.20 8.08L32.20 7.53C32.20 7.42 32.16 7.32 32.03 7.32C31.98 7.32 31.93 7.35 31.89 7.38C30.59 8.08 30.56 8.06 30.56 8.18L30.56 8.19C30.56 8.25 30.60 8.29 30.65 8.33C31.28 8.81 31.28 8.78 31.28 9.11L31.28 12.46C31.28 12.70 31.26 12.88 30.91 12.94C30.48 13.01 30.37 12.99 30.37 13.27C30.37 13.47 30.51 13.52 30.59 13.52C30.63 13.52 31.15 13.44 31.82 13.44C32.51 13.44 33.08 13.54 33.12 13.54C33.25 13.54 33.31 13.43 33.31 13.29C33.31 12.98 33.14 13.01 32.55 12.91C32.26 12.87 32.24 12.67 32.24 12.52L32.24 12.47L32.24 9.16C32.24 9.10 32.24 9.03 32.26 8.97C32.31 8.72 32.89 8.06 33.70 8.06C34.02 8.06 34.79 8.19 35.10 8.90C35.27 9.32 35.28 10.16 35.28 10.42L35.28 12.59C35.28 12.82 35.24 12.89 35.06 12.92C34.50 13.02 34.33 12.99 34.33 13.24C34.33 13.38 34.36 13.52 34.52 13.52C34.55 13.52 35.06 13.44 35.67 13.44C36.37 13.44 36.72 13.52 36.85 13.52C36.93 13.52 37.06 13.48 37.06 13.24C37.06 13.15 37.04 13.02 36.86 12.99C36.37 12.92 36.19 12.95 36.19 12.56L36.19 12.53C36.19 10.60 36.20 10.35 36.20 10.11C36.20 9.87 36.20 9.63 36.18 9.39C36.04 7.66 34.82 7.38 34.19 7.38L34.16 7.38C32.96 7.39 32.30 8.22 32.24 8.22L32.23 8.22C32.21 8.22 32.19 8.20 32.19 8.16ZM42.31 8.48C42.31 5.89 44.14 4.34 46.06 4.34C47.35 4.34 48.34 4.98 48.92 5.71C49.17 6.03 49.22 6.26 49.28 6.64C49.35 7.20 49.32 7.29 49.69 7.29C49.92 7.29 49.97 7.15 49.97 7.06C49.97 6.92 49.59 4.10 49.59 4.09C49.57 4.00 49.55 3.92 49.41 3.92C49.38 3.92 49.29 3.93 49.25 3.93C48.99 4.00 49.08 4.44 48.85 4.44C48.66 4.44 47.80 3.70 46.10 3.70L46.09 3.70C44.79 3.70 43.47 4.21 42.52 5.12C41.61 6.01 40.96 7.34 40.96 8.75C40.96 10.08 41.52 11.41 42.48 12.33C43.41 13.24 44.72 13.78 46.02 13.78C46.80 13.78 47.71 13.59 48.61 13.08C48.90 12.89 48.93 12.78 49.27 12.78L49.66 12.78L49.67 12.78C49.74 12.78 49.92 12.77 49.98 12.56C50.02 12.46 50.33 10.28 50.33 10.28C50.33 10.16 50.20 10.12 50.11 10.12C49.94 10.12 49.91 10.26 49.90 10.30C49.38 11.98 47.85 13.06 46.24 13.06C44.06 13.06 42.31 11.06 42.31 8.48ZM53.69 13.24C53.69 13.06 53.62 12.99 53.45 12.96C52.89 12.87 52.74 12.89 52.74 12.45L52.74 3.58C52.74 3.46 52.71 3.32 52.54 3.32C52.47 3.32 52.42 3.35 52.37 3.37C50.68 4.26 50.65 4.23 50.65 4.34L50.65 4.35C50.65 4.51 50.83 4.56 51.39 4.90C51.63 5.04 51.72 5.04 51.72 5.25L51.72 12.38C51.72 12.66 51.69 12.87 51.32 12.91C50.85 12.96 50.75 12.95 50.75 13.22L50.75 13.26C50.75 13.36 50.76 13.51 50.95 13.51C50.99 13.51 51.53 13.44 52.21 13.44C52.91 13.44 53.48 13.52 53.52 13.52C53.66 13.52 53.69 13.41 53.69 13.24ZM54.14 10.58C54.14 12.31 55.33 13.71 57.11 13.71C58.67 13.71 60.09 12.59 60.09 10.58C60.09 8.71 58.83 7.39 57.16 7.39C55.59 7.39 54.14 8.64 54.14 10.58ZM57.15 13.02C56.00 13.02 55.23 11.97 55.23 10.51C55.23 8.64 56.34 8.05 57.06 8.05C58.13 8.05 59.14 9.14 59.14 10.64C59.14 11.89 58.34 13.02 57.15 13.02ZM60.94 8.33L61.39 8.33C61.47 8.33 61.49 8.39 61.49 8.46C61.49 8.76 61.43 10.93 61.43 11.55C61.43 11.70 61.43 11.84 61.45 12.00C61.54 13.31 62.30 13.71 62.86 13.71C63.63 13.71 64.32 13.01 64.81 12.45C64.83 12.40 64.90 12.32 64.90 12.21C64.90 12.08 64.81 11.96 64.65 11.96C64.34 11.96 63.80 12.80 63.13 12.80C62.54 12.80 62.41 12.25 62.41 11.76C62.41 11.42 62.41 11.10 62.43 8.48C62.43 8.39 62.47 8.36 62.57 8.36L64.20 8.36C64.33 8.36 64.40 8.34 64.46 8.29C64.53 8.20 64.58 7.97 64.58 7.88C64.58 7.62 64.34 7.62 64.22 7.62C64.18 7.62 64.15 7.60 64.11 7.60L62.85 7.60C62.68 7.60 62.57 7.56 62.57 7.32C62.57 7.13 62.58 6.54 62.58 6.34C62.58 6.16 62.48 6.12 62.40 6.12C62.24 6.12 62.16 6.30 62.12 6.37C61.36 7.66 60.66 7.91 60.66 8.15C60.66 8.32 60.82 8.33 60.94 8.33ZM69.15 13.33C69.15 13.43 69.17 13.52 69.30 13.52C69.34 13.52 69.89 13.44 70.56 13.44C71.26 13.44 71.79 13.52 71.83 13.52C71.95 13.52 72.02 13.47 72.02 13.22C72.02 13.02 71.89 12.98 71.78 12.96C71.43 12.92 71.26 12.91 71.26 12.52C71.20 9.90 71.13 9.46 70.85 8.81C70.53 8.06 69.90 7.53 68.98 7.53C68.03 7.53 67.41 8.05 67.33 8.05C67.30 8.05 67.26 8.04 67.26 7.95L67.27 3.64C67.27 3.42 67.14 3.37 67.06 3.37L67.05 3.37C66.95 3.37 66.93 3.40 65.44 4.27C65.41 4.28 65.21 4.37 65.21 4.54C65.21 4.90 66.14 4.77 66.21 5.12C66.22 5.21 66.26 7.42 66.26 8.55L66.26 8.61C66.26 9.90 66.23 11.19 66.19 12.46C66.18 12.66 66.18 12.88 65.86 12.94C65.46 13.02 65.34 13.01 65.34 13.24C65.34 13.37 65.34 13.52 65.51 13.52C65.55 13.52 66.11 13.44 66.82 13.44C67.51 13.44 68.07 13.52 68.11 13.52C68.24 13.52 68.26 13.36 68.26 13.23C68.26 12.73 67.33 13.17 67.21 12.57C67.19 12.47 67.19 9.20 67.19 9.11C67.19 9.04 67.19 8.99 67.20 8.93C67.27 8.65 67.82 8.25 68.42 8.25C68.87 8.25 69.27 8.47 69.55 8.75C69.90 9.13 70.22 9.67 70.22 11.69C70.22 12.75 70.22 12.87 69.94 12.91C69.33 12.99 69.15 12.94 69.15 13.23ZM73.70 4.79C73.70 5.17 73.99 5.45 74.35 5.45C74.72 5.45 75.04 5.15 75.04 4.77C75.04 4.42 74.73 4.13 74.37 4.13C74.00 4.13 73.70 4.42 73.70 4.79ZM73.56 11.75L73.56 12.40C73.56 12.66 73.53 12.85 73.18 12.91C72.55 12.99 72.49 12.96 72.49 13.29C72.49 13.43 72.56 13.52 72.70 13.52C72.74 13.52 73.29 13.44 73.99 13.44C74.68 13.44 75.24 13.52 75.28 13.52C75.43 13.52 75.45 13.33 75.45 13.22C75.45 12.98 75.28 12.99 74.82 12.92C74.51 12.88 74.49 12.84 74.49 11.13L74.49 10.67C74.49 8.96 74.58 7.60 74.58 7.49C74.58 7.32 74.47 7.27 74.38 7.27L74.37 7.27C74.30 7.27 74.28 7.29 72.83 7.99C72.67 8.06 72.45 8.12 72.45 8.29C72.45 8.40 72.55 8.44 72.62 8.47C73.51 8.83 73.57 8.82 73.57 9.04C73.57 9.31 73.56 10.12 73.56 11.75ZM77.62 8.16C77.62 8.15 77.63 8.11 77.63 8.08L77.63 7.53C77.63 7.42 77.59 7.32 77.46 7.32C77.41 7.32 77.36 7.35 77.32 7.38C76.02 8.08 75.99 8.06 75.99 8.18L75.99 8.19C75.99 8.25 76.03 8.29 76.08 8.33C76.71 8.81 76.71 8.78 76.71 9.11L76.71 12.46C76.71 12.70 76.69 12.88 76.34 12.94C75.91 13.01 75.80 12.99 75.80 13.27C75.80 13.47 75.94 13.52 76.02 13.52C76.06 13.52 76.58 13.44 77.25 13.44C77.94 13.44 78.51 13.54 78.55 13.54C78.68 13.54 78.74 13.43 78.74 13.29C78.74 12.98 78.57 13.01 77.98 12.91C77.69 12.87 77.67 12.67 77.67 12.52L77.67 12.47L77.67 9.16C77.67 9.10 77.67 9.03 77.69 8.97C77.74 8.72 78.32 8.06 79.13 8.06C79.45 8.06 80.22 8.19 80.53 8.90C80.70 9.32 80.71 10.16 80.71 10.42L80.71 12.59C80.71 12.82 80.67 12.89 80.49 12.92C79.93 13.02 79.76 12.99 79.76 13.24C79.76 13.38 79.79 13.52 79.95 13.52C79.98 13.52 80.49 13.44 81.10 13.44C81.80 13.44 82.15 13.52 82.28 13.52C82.36 13.52 82.49 13.48 82.49 13.24C82.49 13.15 82.47 13.02 82.29 12.99C81.80 12.92 81.62 12.95 81.62 12.56L81.62 12.53C81.62 10.60 81.63 10.35 81.63 10.11C81.63 9.87 81.63 9.63 81.61 9.39C81.47 7.66 80.25 7.38 79.62 7.38L79.59 7.38C78.39 7.39 77.73 8.22 77.67 8.22L77.66 8.22C77.64 8.22 77.62 8.20 77.62 8.16ZM85.25 7.85C86.14 7.85 86.72 8.85 86.72 9.83C86.72 10.70 86.23 11.38 85.47 11.38C84.60 11.38 84.03 10.44 84.03 9.39C84.03 8.47 84.55 7.85 85.25 7.85ZM83.79 14.67C83.79 14.43 83.89 14.18 84.06 14.01C84.15 13.92 84.20 13.86 84.29 13.86L84.34 13.86C85.79 14.01 86.66 13.89 87.29 14.21C87.44 14.28 87.85 14.53 87.85 15.04C87.85 15.44 87.51 16.06 86.07 16.06C84.78 16.06 83.79 15.51 83.79 14.67ZM82.94 9.56C82.94 9.93 83.02 10.28 83.20 10.58C83.59 11.30 84.06 11.34 84.06 11.48C84.06 11.49 84.06 11.51 84.04 11.52C84.03 11.54 83.24 12.12 83.24 12.84C83.24 13.47 83.76 13.59 83.76 13.68C83.76 13.71 83.75 13.72 83.73 13.73C83.72 13.75 83.01 14.10 83.01 14.95C83.01 15.60 83.45 16.72 85.75 16.72C88.06 16.72 88.66 15.57 88.66 14.80C88.66 14.18 88.27 13.50 87.39 13.24C86.30 12.92 83.96 13.30 83.96 12.46C83.96 12.15 84.34 11.75 84.59 11.75C84.77 11.75 84.94 11.87 85.40 11.87C86.72 11.87 87.72 10.81 87.72 9.52C87.72 8.99 87.57 8.72 87.57 8.64C87.57 8.60 87.60 8.55 87.63 8.53C87.75 8.43 88.63 8.23 88.63 7.69C88.63 7.41 88.37 7.11 88.10 7.11C87.88 7.11 87.77 7.32 87.70 7.43C87.51 7.70 87.23 7.88 86.97 7.88C86.66 7.88 86.21 7.38 85.20 7.38C83.90 7.38 82.94 8.39 82.94 9.56Z"></path></g><defs data-v-fde0c5aa=""><linearGradient data-v-fde0c5aa="" gradientTransform="rotate(25)" id="9def8f68-534c-4eac-b422-cedbba35c50c" x1="0%" y1="0%" x2="100%" y2="0%"><stop data-v-fde0c5aa="" offset="0%" stop-color="#1E0B36" stop-opacity="1"></stop><stop data-v-fde0c5aa="" offset="100%" stop-color="#CA3782" stop-opacity="1"></stop></linearGradient></defs><g data-v-fde0c5aa="" id="593d2c10-8612-410e-810d-2fd1be725f84" stroke="none" fill="url(#9def8f68-534c-4eac-b422-cedbba35c50c)" transform="matrix(0.7669655897929412,0,0,0.7669655897929412,38.143175938467856,113.94980417924278)"><path d="M84.494 32.769c-6.481-1.252-13.045-.589-18.771 2.029a30.68 30.68 0 0 1 1.063 7.998c0 9.552-4.4 18.414-12.171 24.791 8.304.499 16.402-2.143 22.343-8.083 6.984-6.985 9.427-16.958 7.536-26.735z"></path><path d="M86.757 49.471c-1.496 4.631-4.017 8.841-7.516 12.338-5.86 5.86-13.905 9.107-22.653 9.107h-.001c-.388 0-.78-.013-1.172-.03 6.388 3.98 13.913 5.579 21.388 3.896 9.637-2.168 17.033-9.289 20.663-18.562-3.168-2.981-6.81-5.282-10.709-6.749zM43.299 70.916c-8.748 0-16.793-3.247-22.654-9.108-3.498-3.498-6.021-7.706-7.517-12.336-3.899 1.467-7.54 3.768-10.707 6.749 3.63 9.272 11.026 16.394 20.663 18.562 7.475 1.683 15 .084 21.386-3.896-.392.017-.783.029-1.171.029z"></path><path d="M33.174 42.795c0-2.727.362-5.396 1.054-7.969-5.742-2.642-12.33-3.315-18.837-2.058-1.89 9.777.553 19.75 7.538 26.734 5.957 5.957 14.084 8.599 22.411 8.079-7.767-6.375-12.166-15.235-12.166-24.786z"></path><path d="M36.406 42.795c0 9.878 5.324 18.657 13.574 24.235 8.25-5.578 13.574-14.356 13.574-24.235S58.23 24.138 49.98 18.561c-8.25 5.578-13.574 14.355-13.574 24.234z"></path></g><defs data-v-fde0c5aa=""><!----></defs><g data-v-fde0c5aa="" id="50c166a2-a495-4476-9f0e-d824d16bcd2d" fill="#000000" transform="matrix(0.77400294050124,0,0,0.77400294050124,125.67953395621727,158.2688132028414)"><path d="M3.96 11.69L0.73 2.80L0.28 2.80L3.99 12.95L6.93 3.79L9.87 12.95L13.58 2.80L13.13 2.80L9.90 11.69L6.93 2.45ZM22.54 7.48L26.88 7.48L26.88 7.08L22.54 7.08L22.54 3.21L27.16 3.21L27.16 2.80L22.12 2.80L22.12 12.60L27.16 12.60L27.16 12.19L22.54 12.19ZM47.64 7.70C47.64 6.33 48.02 5.22 48.78 4.38C49.54 3.53 50.55 3.11 51.80 3.11C52.99 3.11 54.04 3.54 54.95 4.41L54.95 3.81C54.10 3.06 53.05 2.69 51.80 2.69C50.45 2.69 49.34 3.16 48.48 4.09C47.61 5.03 47.18 6.23 47.18 7.70C47.18 9.17 47.61 10.37 48.48 11.30C49.34 12.24 50.45 12.71 51.80 12.71C53.05 12.71 54.10 12.34 54.95 11.59L54.95 11.03C54.08 11.87 53.03 12.29 51.80 12.29C50.55 12.29 49.54 11.87 48.78 11.03C48.02 10.18 47.64 9.07 47.64 7.70ZM64.33 2.80L64.33 12.60L68.81 12.60L68.81 12.19L64.75 12.19L64.75 2.80ZM76.65 7.70C76.65 6.38 77.06 5.29 77.87 4.41C78.68 3.53 79.71 3.09 80.95 3.09C82.19 3.09 83.22 3.53 84.03 4.41C84.84 5.29 85.25 6.38 85.25 7.70C85.25 9.02 84.84 10.11 84.03 10.99C83.22 11.87 82.19 12.31 80.95 12.31C79.71 12.31 78.68 11.87 77.87 10.99C77.06 10.11 76.65 9.02 76.65 7.70ZM76.23 7.70C76.23 9.16 76.68 10.36 77.57 11.30C78.46 12.24 79.59 12.71 80.95 12.71C82.31 12.71 83.44 12.24 84.33 11.30C85.22 10.36 85.67 9.16 85.67 7.70C85.67 6.24 85.22 5.04 84.33 4.10C83.44 3.16 82.31 2.69 80.95 2.69C79.59 2.69 78.46 3.16 77.57 4.10C76.68 5.04 76.23 6.24 76.23 7.70ZM93.37 3.21L95.89 3.21L95.89 12.60L96.31 12.60L96.31 3.21L98.83 3.21L98.83 2.80L93.37 2.80ZM107.37 2.80L107.37 12.60L107.79 12.60L107.79 7.62L114.02 7.62L114.02 12.60L114.44 12.60L114.44 2.80L114.02 2.80L114.02 7.18L107.79 7.18L107.79 2.80ZM140.53 2.80L137.52 8.16L134.64 2.80L134.11 2.80L137.30 8.62L137.30 12.60L137.75 12.60L137.75 8.61L141.06 2.80ZM149.39 7.70C149.39 6.38 149.80 5.29 150.61 4.41C151.42 3.53 152.45 3.09 153.69 3.09C154.93 3.09 155.96 3.53 156.77 4.41C157.58 5.29 157.99 6.38 157.99 7.70C157.99 9.02 157.58 10.11 156.77 10.99C155.96 11.87 154.93 12.31 153.69 12.31C152.45 12.31 151.42 11.87 150.61 10.99C149.80 10.11 149.39 9.02 149.39 7.70ZM148.97 7.70C148.97 9.16 149.42 10.36 150.31 11.30C151.20 12.24 152.33 12.71 153.69 12.71C155.05 12.71 156.18 12.24 157.07 11.30C157.96 10.36 158.41 9.16 158.41 7.70C158.41 6.24 157.96 5.04 157.07 4.10C156.18 3.16 155.05 2.69 153.69 2.69C152.33 2.69 151.20 3.16 150.31 4.10C149.42 5.04 148.97 6.24 148.97 7.70ZM167.30 2.80L167.30 9.24C167.30 10.29 167.58 11.13 168.15 11.77C168.72 12.42 169.48 12.74 170.42 12.74C171.36 12.74 172.12 12.42 172.69 11.77C173.26 11.13 173.54 10.29 173.54 9.24L173.54 2.80L173.12 2.80L173.12 9.24C173.12 10.17 172.87 10.92 172.36 11.47C171.85 12.02 171.21 12.29 170.42 12.29C169.64 12.29 168.99 12.02 168.48 11.47C167.97 10.92 167.72 10.17 167.72 9.24L167.72 2.80Z"></path></g></svg>